<svg xmlns="http://www.w3.org/2000/svg" xmlns:svg="http://www.w3.org/2000/svg" id="svg20" width="50" height="50" fill="none" stroke="none" stroke-linecap="square" stroke-miterlimit="10" version="1.1" viewBox="0 0 50 50"><defs id="defs20"><clipPath id="p.0-1"><path id="path1-2" d="M 0,0 H 960 V 720 H 0 Z" clip-rule="nonzero"/></clipPath><clipPath id="p.0-1-4"><path id="path1-2-0" d="M 0,0 H 960 V 720 H 0 Z" clip-rule="nonzero"/></clipPath></defs><clipPath id="p.0"><path id="path1" d="M 0,0 H 960 V 720 H 0 Z" clip-rule="nonzero"/></clipPath><path id="arrowright" style="fill:currentColor;fill-opacity:1;stroke:currentColor;stroke-width:2.848;stroke-linecap:round;stroke-linejoin:round;stroke-dasharray:none;paint-order:fill markers stroke" d="m 30.152807,9.1863138 a 7.7145349,0.13753011 41.944235 0 0 5.615234,5.2304682 7.7145349,0.13753011 41.944235 0 0 5.859375,5.082031 7.7145349,0.13753011 41.944235 0 0 -5.613281,-5.230468 7.7145349,0.13753011 41.944235 0 0 -5.861328,-5.0820312 z M 45.035619,22.438267 a 0.42024437,0.94349396 0 0 0 -0.419922,0.943359 0.42024437,0.94349396 0 0 0 0.419922,0.945313 0.42024437,0.94349396 0 0 0 0.419922,-0.945313 0.42024437,0.94349396 0 0 0 -0.419922,-0.943359 z M 18.87351,23.049595 A 14.878937,0.26167485 0 0 0 3.9946033,23.311313 14.878937,0.26167485 0 0 0 18.87351,23.573032 14.878937,0.26167485 0 0 0 33.752416,23.311313 14.878937,0.26167485 0 0 0 18.87351,23.049595 Z m 22.796875,4.263672 a 0.13753011,7.7145349 48.055765 0 0 -5.859375,5.082031 0.13753011,7.7145349 48.055765 0 0 -5.615234,5.230469 0.13753011,7.7145349 48.055765 0 0 5.859374,-5.082032 0.13753011,7.7145349 48.055765 0 0 5.615235,-5.230468 z"/></svg>