<svg xmlns="http://www.w3.org/2000/svg" xmlns:svg="http://www.w3.org/2000/svg" id="svg20" width="50" height="50" fill="none" stroke="none" stroke-linecap="square" stroke-miterlimit="10" version="1.1" viewBox="0 0 50 50"><defs id="defs20"><clipPath id="p.0-1"><path id="path1-2" d="M 0,0 H 960 V 720 H 0 Z" clip-rule="nonzero"/></clipPath><clipPath id="p.0-1-4"><path id="path1-2-0" d="M 0,0 H 960 V 720 H 0 Z" clip-rule="nonzero"/></clipPath></defs><clipPath id="p.0"><path id="path1" d="M 0,0 H 960 V 720 H 0 Z" clip-rule="nonzero"/></clipPath><ellipse style="display:block;fill:#c4c4c4;fill-opacity:.348548;stroke:none;stroke-width:6.38572;stroke-dasharray:none;shape-rendering:auto" id="path2" cx="25.036" cy="25.14" rx="24.894" ry="24.993"/><path id="path3" fill="#000" fill-opacity="0" fill-rule="evenodd" d="M 13.675942,34.154429 3.3403878,63.076639" style="stroke-width:.104845"/><path id="path4" fill-rule="evenodd" stroke="#000" stroke-linecap="butt" stroke-linejoin="round" stroke-width=".105" d="M 13.675942,34.154429 3.3403878,63.076639"/><path id="path5" fill="#000" fill-opacity="0" fill-rule="evenodd" d="M 3.3394916,63.076641 26.463401,62.627244" style="stroke-width:.104845"/><path id="path6" fill-rule="evenodd" stroke="#000" stroke-linecap="butt" stroke-linejoin="round" stroke-width=".105" d="M 3.3394916,63.076641 26.463401,62.627244"/><path id="path7" fill="#000" fill-opacity="0" fill-rule="evenodd" d="M 37.137291,33.627544 49.257679,62.051776" style="stroke-width:.104845"/><path id="path8" fill-rule="evenodd" stroke="#000" stroke-linecap="butt" stroke-linejoin="round" stroke-width=".105" d="M 37.137291,33.627544 49.257679,62.051776"/><path id="path9" fill="#000" fill-opacity="0" fill-rule="evenodd" d="M 49.257334,62.050424 26.137015,62.62735" style="stroke-width:.104845"/><path id="path10" fill-rule="evenodd" stroke="#000" stroke-linecap="butt" stroke-linejoin="round" stroke-width=".105" d="M 49.257334,62.050424 26.137015,62.62735"/><path id="path11" fill="#cfe2f3" fill-rule="evenodd" d="m 9.6085775,26.677672 v 0 c 0,-7.605971 6.7859175,-13.771827 15.1567725,-13.771827 q 7.578387,0 15.156777,0 0,6.885913 0,13.771827 v 0 c 0,7.605972 -6.785918,13.771829 -15.156777,13.771829 v 0 c -8.370854,0 -15.1567725,-6.165857 -15.1567725,-13.771829 z" style="fill:#e0eae0;fill-opacity:1;stroke-width:.104845"/><path id="path12" fill-rule="evenodd" stroke="#000" stroke-linecap="butt" stroke-linejoin="round" stroke-width=".105" d="m 9.6085775,26.677672 v 0 c 0,-7.605971 6.7859175,-13.771827 15.1567725,-13.771827 q 7.578387,0 15.156777,0 0,6.885913 0,13.771827 v 0 c 0,7.605972 -6.785918,13.771829 -15.156777,13.771829 v 0 c -8.370854,0 -15.1567725,-6.165857 -15.1567725,-13.771829 z"/><path id="path13" fill="#434343" fill-rule="evenodd" d="m 14.49534,21.551888 v 0 c 0,-1.267803 0.992846,-2.295558 2.217581,-2.295558 v 0 c 0.588139,0 1.152192,0.241852 1.568067,0.672353 0.415878,0.430502 0.649516,1.014385 0.649516,1.623205 v 0 c 0,1.267801 -0.992845,2.295557 -2.217583,2.295557 v 0 c -1.224735,0 -2.217581,-1.027756 -2.217581,-2.295557 z" style="stroke-width:.104845"/><path id="path14" fill-rule="evenodd" stroke="#000" stroke-linecap="butt" stroke-linejoin="round" stroke-width=".105" d="m 14.49534,21.551888 v 0 c 0,-1.267803 0.992846,-2.295558 2.217581,-2.295558 v 0 c 0.588139,0 1.152192,0.241852 1.568067,0.672353 0.415878,0.430502 0.649516,1.014385 0.649516,1.623205 v 0 c 0,1.267801 -0.992845,2.295557 -2.217583,2.295557 v 0 c -1.224735,0 -2.217581,-1.027756 -2.217581,-2.295557 z"/><path id="path20" fill-rule="evenodd" stroke="#000" stroke-linecap="butt" stroke-linejoin="round" stroke-width=".105" d="m 20.920344,32.493238 c 1.379928,0 2.069892,-0.210275 2.759856,-0.420549 0.689963,-0.210275 1.379927,-0.420548 2.759858,-0.420548"/><path id="path15" fill="#434343" fill-rule="evenodd" d="m 26.060287,21.551888 v 0 c 0,-1.267803 0.992843,-2.295558 2.217583,-2.295558 v 0 c 0.588137,0 1.152191,0.241852 1.568069,0.672353 0.415875,0.430502 0.649513,1.014385 0.649513,1.623205 v 0 c 0,1.267801 -0.992847,2.295557 -2.217582,2.295557 v 0 c -1.22474,0 -2.217583,-1.027756 -2.217583,-2.295557 z" style="stroke-width:.104845"/><path id="path16" fill-rule="evenodd" stroke="#000" stroke-linecap="butt" stroke-linejoin="round" stroke-width=".105" d="m 26.060287,21.551888 v 0 c 0,-1.267803 0.992843,-2.295558 2.217583,-2.295558 v 0 c 0.588137,0 1.152191,0.241852 1.568069,0.672353 0.415875,0.430502 0.649513,1.014385 0.649513,1.623205 v 0 c 0,1.267801 -0.992847,2.295557 -2.217582,2.295557 v 0 c -1.22474,0 -2.217583,-1.027756 -2.217583,-2.295557 z"/><path id="path17" fill="#000" fill-opacity="0" fill-rule="evenodd" d="m 16.124261,30.350767 c 1.176125,0 1.764191,0.516197 2.352254,1.032392 0.588061,0.5162 1.176126,1.032396 2.352253,1.032396" style="stroke-width:.104845"/><path id="path18" fill-rule="evenodd" stroke="#000" stroke-linecap="butt" stroke-linejoin="round" stroke-width=".105" d="m 16.124261,30.350767 c 1.176125,0 1.764191,0.516197 2.352254,1.032392 0.588061,0.5162 1.176126,1.032396 2.352253,1.032396"/><path id="path19" fill="#000" fill-opacity="0" fill-rule="evenodd" d="m 20.920344,32.493238 c 1.379928,0 2.069892,-0.210275 2.759856,-0.420549 0.689963,-0.210275 1.379927,-0.420548 2.759858,-0.420548" style="stroke-width:.104845"/><path style="fill:#36b2ac;fill-opacity:.34854802;stroke-width:.108022" id="path21" d="M 3.5645052,62.796866 C 3.6113167,62.628582 12.372818,38.099617 12.938598,36.543302 l 0.276237,-0.759135 0.848439,0.750487 c 1.871046,1.654958 3.780284,2.690927 6.22895,3.37969 1.610931,0.452965 2.540168,0.572693 4.478365,0.574688 1.354292,0.0016 1.848306,-0.03327 2.692999,-0.172274 3.687715,-0.621914 7.078461,-2.478145 9.331288,-5.108942 l 0.593271,-0.692819 0.105003,0.225485 c 0.554477,1.190483 11.566724,27.158366 11.529936,27.189496 -0.08494,0.07117 -21.916135,0.603955 -36.430422,0.88877 -9.9347255,0.19489 -9.0927079,0.196886 -9.0278297,-0.01995 z"/></svg>