<svg xmlns="http://www.w3.org/2000/svg" xmlns:svg="http://www.w3.org/2000/svg" id="svg1" width="120" height="120" version="1.1" viewBox="0 0 120 120"><g id="layer1"><ellipse style="fill:#fc0" id="path1" cx="32.622" cy="99.763" rx="14.187" ry="13.374"/><ellipse style="fill:navy" id="path2" cx="111.149" cy="21.959" rx="13.374" ry="15.091"/><ellipse style="fill:#4d4d4d" id="path3" cx="26.116" cy="28.646" rx="26.838" ry="27.561"/><ellipse style="fill:#d38d5f" id="path4" cx="78.708" cy="30.182" rx="6.597" ry="6.326"/><path style="fill:#000" id="path8" d="m 28.555366,54.21905 c 4.698985,33.615811 4.698985,33.615811 4.698985,33.615811"/><path style="fill:red" id="path12" d="m 26.748065,29.459017 9.036508,67.231623 -0.72292,0.18073"/><path style="fill:red" id="path13" d="m 35.423113,96.69064 42.83305,-65.424321 0.90365,0.542191 -42.833049,66.147241 h -0.18073 z"/><path style="fill:red" id="path14" d="m 110.60686,21.50689 -83.135875,4.698984 3.253144,-0.903651 v 0 0"/><path style="fill:red" id="path15" d="m 80.605655,28.736097 22.591275,-1.626572 v 0 l -23.314196,1.988032 z"/><path style="fill:red" id="path16" d="m 74.641559,29.820478 -39.760637,7.409937 v 0 l 38.676256,-9.397969 v 0 0 z"/></g><g id="layer2" style="display:inline;fill:#2d0000;fill-opacity:.62962961"><path style="fill:#2d0000;fill-opacity:.62962961" id="path7" d="m 74.051872,46.034888 c 1.594374,-0.09671 3.197564,-0.01751 4.776816,0.215112 1.245225,0.201803 2.494135,0.411115 3.716832,0.724699 0.652335,0.287972 1.347191,0.42235 2.057285,0.415317 0.386677,0.03294 0.872917,-0.05386 1.251767,0.0067 0.151028,0.02416 0.290885,0.09522 0.438785,0.134188 0.557722,0.03827 1.121551,0.04601 1.681269,0.0267 0.339677,0.07712 0.696549,0.05843 1.037649,0.117554 0.10972,0.01902 0.213734,0.0631 0.322282,0.08795 0.272354,0.06235 0.389714,0.06825 0.667446,0.100579 0.320281,0.07105 0.653055,0.02122 0.975279,0.05566 0.101232,0.01082 0.198776,0.04466 0.299235,0.06118 0.245614,0.04039 0.417576,0.04892 0.666474,0.06897 0.570864,0.113451 1.207753,-0.06133 1.752181,0.153113 0.270283,0.150279 0.589185,0.04989 0.870793,0.111801 0.0653,0.01436 0.121429,0.056 0.182143,0.084 0.07461,0.01313 0.149227,0.02625 0.223841,0.03937 0.236413,0.03429 0.474786,0.05271 0.71339,0.06211 0.07513,0.003 0.153344,-0.01534 0.225491,0.0058 0.057,0.01673 0.09369,0.07383 0.145438,0.103013 0.0485,0.02735 0.102418,0.04375 0.153627,0.06563 3.270803,3.837786 0.413032,0.455386 -12.636481,-7.085439 -0.05169,-0.02987 0.113611,-0.03671 0.170765,-0.05394 0.286955,-0.08649 0.187806,-0.0061 0.359221,0.197375 0.309578,0.287774 0.313223,0.749432 0.333722,1.144551 0.02951,0.389141 0.01634,0.779773 0.0078,1.169448 0,0 13.292353,6.77579 13.292353,6.77579 v 0 c -0.0072,-0.410238 -0.01824,-0.820653 -0.0081,-1.230936 -0.01087,-0.546653 -0.0025,-1.093297 -0.01899,-1.63969 -0.01659,-0.06812 -0.02734,-0.137932 -0.04978,-0.204357 -0.01933,-0.05723 -0.06738,-0.10506 -0.07495,-0.164989 -0.0016,-0.01291 0.04331,-0.564166 -0.04083,-0.613347 -12.7102,-7.429544 -8.044506,-7.62808 -13.234394,-7.364704 -0.734052,-0.04945 0.470413,0.0187 -0.395099,0.02103 -0.282424,7.58e-4 -0.561883,-0.136935 -0.840999,-0.163182 -0.577241,-0.108298 0.107036,0.0027 -0.486693,-0.03773 -0.283696,-0.01931 -0.556315,-0.157695 -0.847431,-0.118772 -0.561037,0.05747 -1.122529,-0.02842 -1.680654,-0.08934 -0.638399,-0.08853 -1.281308,-0.110001 -1.916044,-0.228655 -0.707895,-0.121097 -1.426208,-0.152936 -2.143486,-0.177374 -0.552891,-0.04648 -1.105558,-0.0868 -1.64924,-0.202288 -0.551252,-0.0087 -1.108041,0.06695 -1.653637,-0.07323 -0.622345,-0.155602 -1.236138,-0.362649 -1.87633,-0.429925 -1.184343,-0.157983 -2.367228,-0.332059 -3.558605,-0.431068 -1.696912,-0.07676 -3.414059,-0.08428 -5.074454,-0.486159 z"/><path style="fill:#2d0000;fill-opacity:.62962961" id="path6" d="m 59.920493,35.97327 c 0.02434,0.290094 0.06487,0.579283 0.07303,0.870282 0.01131,0.403437 -0.0064,0.807188 -0.01469,1.210697 -0.05537,2.686992 -0.310969,5.349396 -0.604281,8.019455 -0.106169,2.837652 -0.638764,5.639873 -0.814527,8.470747 -0.04226,0.680659 -0.07323,2.790624 -0.08607,3.501434 0.0277,2.689403 -8.45e-4,5.379505 -0.125408,8.066236 -0.09936,1.501992 0.01475,3.011357 0.197177,4.502895 0.18554,1.065579 0.406733,2.12569 0.658557,3.177578 0.233487,0.829929 0.428099,1.672688 0.697953,2.4918 0.15861,0.674107 0.418834,1.299222 0.727503,1.915881 0.521263,0.912555 1.196993,1.709777 1.883529,2.499603 0.639982,0.672658 1.363774,1.299117 2.168539,1.769866 12.558905,7.34636 8.506542,5.38692 13.682471,7.860804 0.665028,0.338812 1.374121,0.551272 2.082153,0.77281 0.438852,0.137313 0.703704,0.256905 1.149913,0.34846 0.177844,0.03649 0.359571,0.05048 0.539356,0.07573 0.518886,0.0311 1.040244,0.104878 1.5614,0.08885 0.497768,-0.01531 0.989018,-0.11971 1.479493,-0.19632 0.659206,-0.181827 1.298249,-0.439176 1.917167,-0.729161 0.307243,-0.133551 0.607881,-0.290232 0.927638,-0.393461 0.135487,-0.04374 0.27761,-0.06488 0.412977,-0.108988 1.890769,-0.616103 -0.88541,0.226671 0.938814,-0.319168 0.377858,-0.131535 0.778978,-0.142572 1.168105,-0.209501 0.214806,-0.03695 0.425372,-0.09579 0.639657,-0.135645 0,0 -12.209607,-8.45218 -12.209607,-8.45218 v 0 c -0.581512,0.164075 -1.167576,0.309306 -1.728315,0.540912 -0.842263,0.281829 -1.708842,0.493059 -2.530454,0.836332 -0.511785,0.204425 -1.015543,0.435988 -1.576605,0.465593 -0.892182,0.09574 -1.79237,-0.03477 -2.659459,-0.252228 -1.159405,-0.36404 -2.314346,-0.742668 -3.367466,-1.365985 -4.542034,-2.579233 -0.799218,-0.456481 11.000309,6.391652 0.21726,0.126092 -0.437465,-0.24722 -0.652055,-0.377806 -0.268427,-0.163349 -0.753488,-0.482226 -1.018052,-0.678238 -0.139255,-0.103172 -0.271663,-0.21528 -0.407494,-0.322919 -0.394614,-0.35058 -0.753781,-0.719271 -1.107072,-1.111628 -0.02426,-0.02695 -0.540442,-0.611006 -0.582238,-0.67203 -0.07216,-0.105355 -0.119835,-0.225532 -0.179752,-0.338298 -0.186438,-0.243567 -0.312176,-0.486041 -0.465793,-0.748918 -0.159681,-0.273254 -0.34586,-0.526382 -0.411041,-0.84603 -0.258232,-0.838446 -0.627088,-1.640644 -0.869039,-2.486231 -0.291198,-1.025474 -0.507349,-2.072221 -0.767053,-3.106035 -0.02222,-0.09355 -0.276309,-1.16084 -0.289439,-1.22702 -0.211621,-1.06661 -0.281172,-2.157808 -0.361743,-3.239794 -0.202839,-2.776164 -0.369193,-5.556343 -0.435037,-8.33941 -0.134457,-4.010728 -0.185302,-8.049303 0.412949,-12.028841 0.394999,-2.900178 0.828375,-5.83255 1.755081,-8.621441 0.07983,-0.24024 0.185911,-0.470944 0.278866,-0.706415 z"/><path style="fill:#2d0000;fill-opacity:.62962961" id="path5" d="m 24.388704,81.964466 c 0.226134,-0.09603 0.446639,-0.206587 0.678404,-0.2881 1.91135,-0.672232 3.980024,-0.912372 5.960426,-1.29962 1.376476,-0.245154 2.75542,-0.472127 4.130092,-0.727335 0.800365,-0.148587 1.782782,-0.314806 2.568966,-0.535362 0.435879,-0.122282 0.859874,-0.28353 1.289811,-0.425294 2.204346,-0.716987 4.268637,-1.776955 6.235222,-2.992287 1.091293,-0.61616 2.094669,-1.370027 3.147189,-2.04634 0.525718,-0.337809 1.064404,-0.655003 1.59528,-0.984645 1.040622,-0.606557 2.085638,-1.214017 3.158502,-1.762711 0.537275,-0.274778 1.087234,-0.524075 1.627863,-0.792193 0.781891,-0.448683 1.619116,-0.785162 2.430705,-1.17278 0.595858,-0.284585 1.168942,-0.609548 1.766398,-0.890857 0.435854,-0.229008 0.860474,-0.494475 1.309259,-0.698611 0.50495,-0.229684 1.057358,-0.378735 1.577401,-0.57018 1.440282,-0.432849 2.899496,-0.808309 4.374782,-1.102622 2.172795,-0.454597 4.378754,-0.69935 6.589102,-0.874768 1.725637,-0.145003 3.45238,-0.08615 5.159409,0.205889 1.198982,0.205122 1.683297,0.350826 2.88859,0.65057 3.345116,0.83522 6.551026,2.108143 9.767168,3.33099 1.033499,0.346857 2.050636,0.744364 3.08785,1.080399 0.750757,0.243228 1.506102,0.444545 2.24892,0.712825 1.172715,0.380166 2.296804,0.883806 3.393023,1.445589 0.483498,0.153126 0.861514,0.50894 1.311364,0.724818 0.14093,0.06763 0.29849,0.09627 0.43925,0.164261 0.49465,0.302302 0.23995,0.169847 0.76328,0.398896 0.87528,0.449489 1.72631,0.942056 2.57494,1.439086 C 83.711927,62.38439 89.124606,65.769754 93.377237,68.64916 c 0.715394,0.571048 1.44593,1.12293 2.183466,1.665494 4.891287,3.520016 10.132957,6.644671 15.734127,8.873489 1.21527,0.383315 2.45399,0.691505 3.71259,0.890157 1.02099,0.19389 2.05936,0.13964 3.09176,0.165204 1.46224,0.03621 0.3556,0.02908 1.84711,0.02469 1.55508,0.01683 3.10951,0.0684 4.66389,0.115858 0.87387,0.01678 1.74776,0.03381 2.62151,0.05581 0.67055,0.0042 1.32938,-0.164558 1.98773,-0.275398 0.72087,-0.2027 1.42775,-0.448436 2.1226,-0.728226 0.12922,-0.05421 0.25614,-0.114273 0.38766,-0.162639 0.2524,-0.09282 0.51415,-0.158423 0.76758,-0.248388 0.39033,-0.138566 0.7639,-0.30498 1.15892,-0.430339 0.65143,-0.201336 1.25877,-0.485983 1.84555,-0.831267 0.41499,-0.127114 0.70127,-0.449287 1.04604,-0.686924 0.0314,-0.02164 0.45602,-0.24949 0.47921,-0.262003 0.25635,-0.257077 0.55277,-0.466443 0.83544,-0.692387 0,0 -12.56204,-7.885653 -12.56204,-7.885653 v 0 c -0.22659,0.183649 -0.4429,0.387816 -0.71395,0.505338 -0.49698,0.30716 -0.96885,0.647097 -1.49976,0.89768 -0.54606,0.255045 -1.1092,0.471735 -1.66628,0.700817 -0.75658,0.308329 -1.53517,0.555421 -2.30362,0.831432 -0.65392,0.197921 -1.31454,0.400846 -1.99564,0.473492 -0.62116,0.08108 -1.2461,0.109116 -1.87189,0.09076 -0.81871,0.02409 -1.63752,0.04445 -2.45634,0.06444 -1.45049,0.05268 -2.90225,0.103955 -4.35382,0.06778 -1.6789,-0.0786 -3.36159,-0.141168 -5.00041,-0.556823 -1.21187,-0.302825 -2.43274,-0.608614 -3.567533,-1.143397 -0.32022,-0.144103 -0.801874,-0.356372 -1.113761,-0.514992 -0.193809,-0.09857 -0.761564,-0.419927 -0.573518,-0.310766 20.493622,11.89654 15.245492,8.823477 10.971892,6.351345 -0.67045,-0.475816 -1.33127,-0.966209 -1.96525,-1.488002 -0.20299,-0.194109 -0.4062,-0.381003 -0.63703,-0.542519 -0.0913,-0.06391 -0.19068,-0.116173 -0.28005,-0.182812 -0.10551,-0.07868 -0.20242,-0.168285 -0.30364,-0.252427 -4.30919,-2.503416 -8.618388,-5.006831 -12.927584,-7.510247 -0.88154,-0.487215 -1.772647,-0.959661 -2.67821,-1.400652 -0.47402,-0.257271 -0.226919,-0.135958 -0.742622,-0.361245 -0.13107,-0.06699 -0.251112,-0.153945 -0.38064,-0.22387 -0.420085,-0.226778 -0.868914,-0.388877 -1.298021,-0.596568 -1.112625,-0.469262 -2.24265,-0.886743 -3.403992,-1.221753 -1.638343,-0.457954 -3.266067,-0.951738 -4.879272,-1.49227 -3.182842,-1.035914 -6.344979,-2.141803 -9.577551,-3.016919 -0.579419,-0.144757 -1.153904,-0.310931 -1.738257,-0.434271 -2.256661,-0.476315 -4.560065,-0.477383 -6.847822,-0.275371 -2.336593,0.161679 -4.669239,0.391829 -6.975574,0.810699 -1.576532,0.308204 -3.160629,0.600451 -4.682847,1.127307 -1.097425,0.350235 -2.166964,0.780342 -3.121564,1.437892 -1.227182,0.828427 -2.503776,1.575993 -3.856245,2.185059 -1.664224,0.811598 -3.297763,1.683101 -4.856484,2.685394 -1.573794,0.998527 -3.140903,2.004686 -4.69092,3.039959 -1.844542,1.102066 -3.671074,2.265087 -5.758915,2.862921 -2.590628,0.646169 -5.210065,1.16573 -7.84464,1.599662 -1.145704,0.170763 -1.645614,0.237986 -2.774147,0.434056 -1.22072,0.212087 -2.437772,0.470225 -3.666549,0.634192 -0.320138,0.04272 -0.64272,0.06453 -0.96408,0.09679 z"/></g></svg>