<svg xmlns="http://www.w3.org/2000/svg" style="display:block;shape-rendering:auto" id="svg12" width="10" height="10" preserveAspectRatio="xMidYMid" version="1.1" viewBox="0 0 5 5"><defs id="defs12"><linearGradient id="linearGradient7"><stop style="stop-color:#d3d3d3;stop-opacity:1" id="stop8" offset="0"/><stop style="stop-color:#d3d3d3;stop-opacity:0" id="stop9" offset="1"/></linearGradient></defs><ellipse style="display:block;shape-rendering:auto;fill:#c4c4c4;stroke-width:.6375;fill-opacity:.34854773;stroke-dasharray:none;stroke:none" id="path2" cx="2.511" cy="2.511" rx="2.483" ry="2.497"/><path style="fill:#0f0;stroke-width:.323941" id="path1" d="m 1.3269245,1.5156002 c 0.1393806,-0.00489 0.2772916,-0.029078 0.4152688,-0.048014 0.025488,-0.0035 0.081815,-0.011673 0.1025075,-0.00509 0.00293,9.347e-4 -0.00115,0.00702 0.00132,0.0088 0.00526,0.00377 0.022336,-0.00756 0.027597,-0.00379 0.00495,0.00355 0.00176,0.011729 0.00264,0.0176 0.00397,0.026466 3.55e-4,0.04936 -0.00784,0.072923 -0.00622,0.017874 0.011863,0.062224 0.011876,0.079199 1.91e-5,0.03279 -0.00538,0.065736 -0.00389,0.099323 0.003,0.066958 0.020415,0.1361167 0.030355,0.2023963 0.021997,0.1466642 0.043993,0.2933281 0.065989,0.4399921 0.015182,0.1012244 0.022315,0.208489 0.046192,0.3079945 0.010398,0.043339 0.02408,0.086978 0.038194,0.1294718 0.0047,0.01412 0.00252,0.029707 0.0066,0.044 0.00813,0.028486 0.02459,0.057255 0.031595,0.085473 0.00815,0.032823 0.00509,0.097506 0.019796,0.1319979 0.00422,0.0099 0.012928,-0.018339 0.014437,-0.028925 0.00763,-0.053416 0.035616,-0.1040133 0.061673,-0.1521602 0.00949,-0.017528 0.038442,-0.060164 0.044635,-0.077974 0.00196,-0.00563 -0.0041,-0.011839 -0.00264,-0.017601 0.0098,-0.038652 0.014972,-0.063276 0.022278,-0.101848 0.00567,-0.029961 0.034861,-0.049865 0.044636,-0.077974 0.00262,-0.00754 -0.00659,-0.018855 -0.00397,-0.0264 0.00553,-0.015906 0.023101,-0.025547 0.031516,-0.04025 0.00666,-0.011618 0.00715,-0.025766 0.013114,-0.037725 0.02929,-0.058677 0.1052461,-0.104809 0.1365842,-0.1534607 0.00514,-0.00798 0.00144,-0.019023 0.00525,-0.027662 0.013087,-0.029798 0.039744,-0.057152 0.052515,-0.088035 0.00361,-0.00871 8.213e-4,-0.0193 0.00525,-0.027662 0.025269,-0.047798 0.066769,-0.090794 0.09191,-0.1383482 0.024264,-0.045897 0.041335,-0.096475 0.062994,-0.1433602 0.017293,-0.037435 0.051758,-0.063635 0.069592,-0.099362 0.00133,-0.00267 -0.00318,-0.00643 -0.00132,-0.0088 0.00186,-0.00237 0.00734,0.00111 0.0092,-0.00126 0.00371,-0.00474 -0.00635,-0.012857 -0.00264,-0.0176 0.00185,-0.00237 0.00734,0.00111 0.0092,-0.00126 0.00186,-0.00237 -0.0023,-0.00599 -0.00132,-0.0088 0.00138,-0.00398 0.00526,-0.0067 0.00788,-0.010063 0.00349,-0.018441 0.00515,-0.03729 0.010478,-0.055325 0.00608,-0.020562 0.017806,-0.03929 0.028877,-0.057848 0.014154,-0.023728 0.033648,-0.04452 0.045955,-0.069173 0.00298,-0.00599 0.00241,-0.013559 0.00656,-0.018862 0.00415,-0.0053 0.012928,-0.00602 0.017079,-0.011329 0.0067,-0.00855 0.00775,-0.020373 0.014437,-0.028925 0.012408,-0.015849 0.053261,-0.04705 0.065672,-0.062899 0.011543,-0.014747 0.010385,-0.040356 0.019678,-0.056586 0.024247,-0.042359 0.050559,-0.084621 0.074831,-0.127023 0.00276,-0.00482 0.00168,-0.044078 0.0026,-0.045262 0.00813,-0.010393 0.070227,-0.00964 0.08279,-0.011357 0.050123,-0.00688 0.2347721,-0.035977 0.2391704,-0.032826 0.00249,0.00178 -0.00116,0.00702 0.00132,0.0088 0.00318,0.00227 0.054872,-0.00753 0.055193,-0.00757 0.042975,-0.00589 0.2015482,-0.044077 0.2312916,-0.022763 0.00965,0.00692 0.00877,0.058479 0.010558,0.070399 0.00847,0.05647 -0.011556,0.1619356 -0.053754,0.2049592 -0.029007,0.029577 -0.061027,0.054924 -0.090625,0.084284 -0.021287,0.021117 -0.03536,0.04803 -0.055153,0.070437 -0.017328,0.019613 -0.090118,0.081583 -0.095869,0.1119479 -0.00305,0.016112 4.505e-4,0.029151 -0.0026,0.045262 -0.00278,0.014692 -0.01917,0.030801 -0.020997,0.047787 -0.00262,0.024357 -0.00726,0.048285 -0.00784,0.072923 0.035952,0.029065 -0.010092,0.03065 -0.011796,0.046524 -0.00127,0.011784 0.0075,0.023535 0.00529,0.035199 -0.0075,0.039597 -0.00397,0.1121668 -0.01568,0.1458477 -0.00414,0.011935 -0.017595,0.019023 -0.023637,0.030187 -0.017663,0.032636 -0.030201,0.096274 -0.045915,0.1320351 -0.01133,0.025771 -0.022,0.051886 -0.035436,0.076712 -0.010065,0.018607 -0.030908,0.030995 -0.039395,0.050311 -0.00379,0.00865 -0.00182,0.018881 -0.00525,0.027662 -0.1090605,0.2798502 0.014303,-0.048289 -0.057754,0.1156978 -0.01826,0.041556 -0.031432,0.090389 -0.045915,0.132035 -0.00887,0.025486 0.00272,0.055171 -0.00652,0.081724 -0.00489,0.014059 -0.016795,0.025145 -0.022318,0.038986 -0.00595,0.014908 -0.00534,0.031813 -0.011796,0.046524 -0.031416,0.071497 -0.091898,0.1278488 -0.1405037,0.1899225 -0.045895,0.058612 -0.086435,0.1208723 -0.1326244,0.1798601 -0.027898,0.035627 -0.055299,0.07739 -0.08667,0.1106856 -0.00748,0.00794 -0.018261,0.01283 -0.024958,0.021387 -0.051467,0.065728 0.050898,-0.035662 -0.022318,0.038986 -0.038362,0.039113 -0.067069,0.080493 -0.1037483,0.1220108 -0.0072,0.00816 -0.018967,0.012375 -0.024958,0.021387 -0.00969,0.014584 -0.012129,0.032734 -0.020998,0.047787 -0.048236,0.081878 -0.054868,0.074472 -0.1089873,0.1496729 -0.1177969,0.1636876 0.035137,-0.04153 -0.066952,0.1169615 -0.00493,0.00765 -0.020753,0.00553 -0.026277,0.012582 -0.00262,0.00336 -0.00261,0.024308 -0.00525,0.027662 -0.00123,0.00157 -0.035157,0.00622 -0.036795,0.00505 -0.00248,-0.00178 0.00116,-0.00702 -0.00132,-0.0088 -0.00389,-0.00278 -0.064894,-0.024554 -0.069672,-0.026362 -0.045239,-0.017118 -0.041467,-0.010049 -0.077551,-0.016299 -0.00863,-0.0015 -0.012728,-0.01243 -0.021037,-0.015075 -0.00929,-0.00296 -0.019887,-0.00138 -0.028917,-0.00501 -0.027662,-0.011119 -0.05166,-0.033196 -0.081506,-0.042695 -0.035476,-0.011288 -0.080173,-0.015408 -0.116985,-0.028849 -0.054014,-0.019721 -0.1042196,-0.053369 -0.1603798,-0.067798 -0.00598,-0.00153 -0.012515,0.00439 -0.018398,0.00252 -0.00421,-0.00134 -0.020109,-0.054248 -0.019757,-0.069136 0.00127,-0.053764 0.021508,-0.1135489 0.031438,-0.1659723 0.00815,-0.042999 -5.144e-4,-0.111949 -0.00404,-0.1521235 C 1.664044,3.1233123 1.6246767,2.9375429 1.5971214,2.7538145 1.5879482,2.692646 1.5666183,2.6222172 1.5680868,2.5602179 1.5697777,2.4886934 1.5756091,2.4160872 1.5732126,2.3439717 1.570723,2.269314 1.5499403,2.1888002 1.5388979,2.1151758 1.5311626,2.0636007 1.5306434,1.998637 1.5138215,1.9479789 1.4964698,1.8957362 1.4757364,1.8468165 1.4624693,1.7933694 1.4517651,1.750263 1.4353479,1.687349 1.440033,1.6437721 c 4.488e-4,-0.00417 0.0071,-0.00593 0.00788,-0.010063 0.00429,-0.022602 -0.010078,-0.062767 -0.021077,-0.077937 -0.00353,-0.00487 0.00232,-0.014047 -0.00264,-0.0176 -0.00526,-0.00377 -0.014459,-0.00251 -0.019718,-0.00628 -0.00495,-0.00355 0.00232,-0.014047 -0.00264,-0.0176 -0.00526,-0.00377 -0.014459,-0.00251 -0.019718,-0.00628 -0.00248,-0.00178 0.00174,-0.00922 -0.00132,-0.0088 -0.018651,0.00256 -0.035915,0.010916 -0.053874,0.016375 z"/></svg>