<svg xmlns="http://www.w3.org/2000/svg" xmlns:svg="http://www.w3.org/2000/svg" style="display:block;shape-rendering:auto" id="svg12" width="10" height="10" preserveAspectRatio="xMidYMid" version="1.1" viewBox="0 0 5 5"><ellipse style="display:block;fill:#c4c4c4;fill-opacity:.348548;stroke:none;stroke-width:.6375;stroke-dasharray:none;shape-rendering:auto" id="path2" cx="2.476" cy="2.538" rx="2.483" ry="2.497"/><path style="fill:#ff2a2a;stroke-width:.444338" id="path1" d="m 2.588645,1.9822203 c 0.024583,-0.016861 0.047324,-0.036989 0.073751,-0.050582 0.039331,-0.020231 0.093979,-0.042019 0.1352102,-0.063227 0.030274,-0.015572 -0.011097,0.036706 0.036876,-0.012645 0.063613,-0.065443 -0.1015306,0.026935 0.073751,-0.063227 0.066262,-0.034085 0.1310751,-0.051028 0.1966694,-0.088518 0.00702,-0.00401 0.016644,-0.04689 0.024583,-0.063228 0.012414,-0.025543 0.044391,-0.033023 0.061459,-0.050582 0.039322,-0.040454 0.00962,-0.028148 0.036876,-0.050582 0.027212,-0.022395 0.088166,-0.065411 0.1106266,-0.088518 0.039226,-0.040355 0.068414,-0.1336104 0.098335,-0.1643914 0.033201,-0.034157 0.048957,-0.029218 0.073751,-0.063227 0.00777,-0.010664 0.00313,-0.028511 0.012292,-0.037937 0.00647,-0.00666 0.018105,-0.00598 0.024584,-0.012645 0.00647,-0.00666 0.00721,-0.017449 0.012292,-0.025291 0.019551,-0.030171 0.057846,-0.041471 0.086043,-0.063227 0.048656,-0.037542 7.842e-4,-0.013454 0.049168,-0.063227 0.00647,-0.00667 0.018105,-0.00598 0.024584,-0.012645 0.00289,-0.00298 -0.0029,-0.009665 0,-0.0126453 0.00289,-0.002979 0.00939,0.002979 0.012292,0 0.0029,-0.002979 -0.0029,-0.009665 0,-0.0126453 0.018591,-0.0191262 0.057222,-0.037721 0.073751,-0.0632274 0.00694,-0.0107114 -0.00848,-0.0418542 0,-0.0505819 0.011768,-0.0121058 0.030824,0.0101553 0.036876,0.0126453 0.015685,0.006455 0.033483,0.006192 0.049168,0.0126453 0.018809,0.00774 0.177731,0.15527439 0.1843775,0.16439139 0.030692,0.0421 0.0074,0.1366685 0.024584,0.1896822 0.00366,0.01131 0.017344,0.015981 0.024583,0.025291 0.012798,0.016457 0.021137,0.03709 0.036876,0.050582 0.00995,0.00854 0.025287,0.00669 0.036876,0.012645 0.051156,0.026314 -0.01314,-8.743e-4 0.012292,0.025291 0.0029,0.00298 0.00939,-0.00297 0.012292,0 0.014516,0.014935 -0.00829,0.076164 -0.012292,0.088518 -0.00875,0.027021 -0.054294,0.077631 -0.086043,0.088518 -0.011661,0.00399 -0.025882,-0.00565 -0.036876,0 -0.013213,0.0068 -0.026429,0.014544 -0.036876,0.025291 -0.00289,0.00297 0.0029,0.00966 0,0.012645 -0.035218,0.036231 -0.098407,0.038012 -0.1352102,0.075873 -0.012292,0.012645 -0.026445,0.023629 -0.036876,0.037936 -0.01437,0.019711 -0.013719,0.066164 -0.024584,0.088518 -0.011089,0.022815 -0.03839,0.041052 -0.049168,0.063227 -0.00183,0.00377 0.00366,0.010761 0,0.012645 -0.00733,0.00378 -0.017254,-0.00377 -0.024584,0 -0.112867,0.058057 0.084282,-0.00939 -0.061459,0.050582 -0.00761,0.00314 -0.017254,-0.00377 -0.024584,0 -0.00367,0.00188 0.00183,0.00888 0,0.012645 -0.00777,0.015995 -0.026445,0.023629 -0.036876,0.037937 -0.00777,0.010663 -0.00313,0.028511 -0.012292,0.037937 -0.0029,0.00297 -0.00939,-0.00298 -0.012292,0 -0.0029,0.00297 0.00183,0.00888 0,0.012645 -0.00493,0.01015 -0.047983,0.062009 -0.049168,0.063227 -0.00647,0.00666 -0.017254,0.00699 -0.024584,0.012645 -0.013907,0.01073 -0.022412,0.028016 -0.036876,0.037937 -0.037762,0.025899 -0.086259,0.044371 -0.1229184,0.063227 -0.021433,0.011025 -0.041125,0.060184 -0.061459,0.075873 -0.00655,0.00506 -0.016809,-0.00267 -0.024583,0 -0.010994,0.00378 -0.014218,0.019959 -0.024584,0.025292 -0.00733,0.00377 -0.017254,-0.00378 -0.024583,0 -0.040324,0.020741 -0.019842,0.01795 -0.098335,0.025291 -0.018689,0.00175 -0.1013298,-0.00956 -0.1106266,0 -0.00289,0.00298 0.0029,0.00966 0,0.012645 -0.00289,0.00297 -0.00939,-0.00298 -0.012292,0 -0.0029,0.00297 0.00183,0.00888 0,0.012645 -0.00984,0.020237 -0.076955,0.057728 -0.098335,0.063227 -0.018194,0.00468 -0.045092,0.00423 -0.061459,0.012645 -0.020731,0.010664 0.032778,0.033721 0.049168,0.050582 0.014972,0.015403 0.00576,0.028253 0.024584,0.037937 0.00733,0.00378 0.018789,-0.00596 0.024583,0 0.0029,0.00298 -0.0029,0.00966 0,0.012645 0.025432,0.026164 -9.989e-4,-0.039982 0.024584,0.012645 0.010879,0.022385 -0.018284,0.00433 0.012292,0.025291 0.023428,0.016068 0.053535,0.029785 0.073751,0.050582 0.00647,0.00666 0.00581,0.018627 0.012292,0.025292 0.00647,0.00666 0.018106,0.00598 0.024584,0.012645 0.048382,0.049774 5.126e-4,0.025686 0.049168,0.063227 0.013133,0.010133 0.078735,0.051951 0.086043,0.063228 0.023286,-0.00144 0.00819,0.029506 0.012292,0.037937 0.0041,0.00843 0.020486,0.00422 0.024584,0.012645 0.00366,0.00754 0,0.016861 0,0.025291 0.00819,0.00843 0.018621,0.015067 0.024583,0.025292 0.029656,0.015266 0.00295,0.044003 0.012292,0.063227 0.045644,0.093913 0.1085448,0.1650372 0.1597939,0.2529098 0.022295,0.038226 0.035407,0.076288 0.061459,0.1138094 0.08353,0.1203058 -0.046884,-0.088744 0.061459,0.050582 0.021249,0.027327 0.043591,0.1115268 0.061459,0.1391004 0.014363,0.022165 0.065879,0.064226 0.073751,0.088518 0.00259,0.008 -0.00259,0.017293 0,0.025292 0.00924,0.028512 0.057309,0.0505 0.073751,0.075873 0.031998,0.049378 -0.013913,5.273e-4 0.036876,0.063228 0.023739,0.029305 0.055523,0.054941 0.086043,0.075873 0.054745,0.037547 0.097763,0.1029273 0.073751,0.1770368 -0.00579,0.017884 -0.011627,0.037253 -0.024584,0.050582 -0.00782,0.00805 -0.033476,0.017219 -0.049168,0.025292 -0.028761,0.014794 -0.054828,0.052523 -0.086043,0.063227 -0.00777,0.00267 -0.017052,-0.00332 -0.024584,0 -0.038773,0.017095 -0.072896,0.043819 -0.1106266,0.063228 -0.00819,0.00421 -0.015892,0.00966 -0.024583,0.012645 -0.00777,0.00267 -0.018789,-0.00596 -0.024584,0 -0.025432,0.026164 0.038864,-0.00102 -0.012292,0.025291 -0.044184,0.022727 -0.080246,0.061737 -0.1352102,0.075873 -0.011925,0.00306 -0.024951,-0.00306 -0.036876,0 -0.00563,0.00145 -0.00711,0.00998 -0.012292,0.012645 -0.035044,0.018024 -0.031715,-0.00937 -0.036874,-0.025295 -0.00183,-0.00566 -0.01046,-0.00699 -0.012292,-0.012645 -0.00259,-0.008 0.00366,-0.017751 0,-0.025291 -0.013319,-0.027399 -0.069646,-0.059 -0.086044,-0.07587 -0.014952,-0.015382 -0.055233,-0.1074042 -0.061459,-0.1138094 -0.00289,-0.00298 -0.00939,0.00297 -0.012292,0 -0.0029,-0.00298 0.0029,-0.00966 0,-0.012645 C 3.2700976,4.049 3.2582446,4.04881 3.2524046,4.030789 3.2418846,3.998321 3.2612846,4.000233 3.2401126,3.967562 3.2090576,3.919641 3.0109646,3.7535137 3.006568,3.7399443 c -0.00647,-0.019994 0.00402,-0.042561 0,-0.063227 -0.00989,-0.050887 -0.00897,-0.00581 -0.024583,-0.037937 -0.00367,-0.00754 0.00367,-0.017751 0,-0.025292 -0.025578,-0.052627 8.498e-4,0.013519 -0.024584,-0.012645 -0.037728,-0.038814 0.00718,-0.010515 -0.012292,-0.050582 -0.00183,-0.00378 -0.00939,0.00298 -0.012292,0 -0.00515,-0.0053 -0.00857,-0.030273 -0.012292,-0.037937 C 2.904647,3.4796563 2.86456,3.4558263 2.846774,3.4238063 2.834482,3.3985153 2.822191,3.3732243 2.809898,3.3479333 2.801708,3.3395033 2.791277,3.3328663 2.785315,3.3226423 2.764213,3.2864603 2.768143,3.1407743 2.760732,3.0950235 2.739328,2.962907 2.763872,3.0856035 2.736149,3.0570865 2.732969,3.0538165 2.713099,2.9495885 2.711566,2.9432771 2.701378,2.9013521 2.667917,2.8661121 2.650107,2.8294677 c -0.010638,-0.02189 -0.0043,-0.055008 -0.024584,-0.075873 -0.00289,-0.00298 -0.01046,0.00378 -0.012292,0 -0.00367,-0.00754 0.00455,-0.018277 0,-0.025292 -0.029942,-0.046206 -0.017994,0.013559 -0.036876,-0.025291 -0.00848,-0.017442 0.014886,-0.01131 -0.012292,-0.025292 -0.020804,-0.010701 -0.06594,0.072446 -0.073751,0.088518 -0.00367,0.00754 0.00367,0.017751 0,0.025292 -0.00787,0.016191 -0.01912,0.033721 -0.024584,0.050582 -0.00388,0.011997 0.00869,0.028994 0,0.037937 -0.00647,0.00666 -0.018106,0.00599 -0.024583,0.012645 -0.0029,0.00298 0.00227,0.00914 0,0.012645 -0.015462,0.02386 -0.051421,0.058644 -0.073751,0.075873 -0.00733,0.00565 -0.018105,0.00599 -0.024583,0.012645 -0.00571,0.00588 -0.019663,0.040463 -0.036876,0.050582 -0.015003,0.00882 -0.08956,0.041554 -0.1106265,0.063227 -0.010446,0.010746 -0.014138,0.02719 -0.024584,0.037937 -0.00289,0.00298 -0.00973,-0.00329 -0.012292,0 -0.014925,0.019192 -0.01822,0.047874 -0.036876,0.063227 -0.024366,0.020054 -0.059582,0.020923 -0.086043,0.037937 -0.011704,0.00753 -0.019355,0.039824 -0.024583,0.050582 -0.024132,0.049652 -0.09477,0.082606 -0.1352102,0.1138094 -0.022711,0.017524 -0.091043,0.111309 -0.098335,0.1138095 -0.00777,0.00267 -0.01681,-0.00267 -0.024583,0 -0.046077,0.015801 -0.065427,0.091107 -0.086043,0.1264549 -0.01982,0.033983 -0.056264,0.065184 -0.073751,0.1011639 -0.00183,0.00377 0.0029,0.00966 0,0.012645 -0.00289,0.00298 -0.00939,-0.00298 -0.012292,0 -0.0029,0.00298 0.00183,0.00888 0,0.012645 -0.00863,0.017757 -0.043934,0.032553 -0.049168,0.037937 -0.00647,0.00666 -0.00721,0.017449 -0.012292,0.025291 -0.022512,0.034741 -0.06138,0.050422 -0.073751,0.075874 -0.020848,0.042896 -0.079956,0.056966 -0.1106267,0.088518 -0.028427,0.029245 -0.06721,0.123497 -0.1106265,0.1011639 -0.028295,-0.014554 0.00536,-0.014833 -0.024583,-0.037936 -0.020731,-0.015996 -0.051531,-0.011575 -0.073751,-0.025291 -0.019875,-0.012268 -0.028437,-0.039918 -0.049167,-0.050582 -0.071947,-0.037009 -0.026523,0.0071 -0.073751,-0.025291 -0.0269216,-0.018464 -0.0447372,-0.060949 -0.073751,-0.075873 -0.003667,-0.00188 -0.0104596,0.00377 -0.0122917,0 -0.003667,-0.00754 0.002593,-0.017293 0,-0.025292 -0.0127889,-0.03947 -0.008195,0.00422 -0.0245838,-0.012645 -0.002896,-0.00298 0.002274,-0.00914 0,-0.012645 -0.0150818,-0.023274 -0.0352081,-0.030756 -0.0491673,-0.037937 -0.0183236,-0.00943 -0.0223895,-0.035679 -0.0368755,-0.050582 -0.003286,-0.00338 -0.0662452,-0.033013 -0.0491673,-0.050582 0.0462463,-0.047577 0.12805774,-0.031499 0.18437752,-0.037937 0.0148159,-0.00169 0.10289445,-0.059964 0.11062645,-0.075873 0.012321,-0.025351 -0.020322,-1.271e-4 0.012292,-0.025291 0.034501,-0.02662 0.087161,-0.048285 0.1106265,-0.088518 0.00667,-0.01143 0.0065,-0.026013 0.012292,-0.037937 -0.00262,-0.02629 0.019086,-0.0051 0.024583,-0.012645 0.010994,-0.015081 0.01442,-0.034897 0.024583,-0.050582 0.017409,-0.026866 0.044024,-0.048968 0.061459,-0.075873 0.00499,-0.00771 0.019592,-0.042877 0.024583,-0.050582 0.048391,-0.074676 0.1332565,-0.11956 0.1843774,-0.1896823 0.01536,-0.021069 0.012962,-0.057939 0.024584,-0.075873 0.00643,-0.00992 0.019401,-0.014627 0.024583,-0.025291 0.00721,-0.014835 0.00436,-0.046917 0.012292,-0.063227 0.00483,-0.00994 0.068599,-0.095864 0.073751,-0.101164 0.022628,-0.023279 0.04815,-0.043474 0.073751,-0.063227 0.010366,-0.008 0.027714,-0.00322 0.036876,-0.012645 0.01639,-0.01686 -0.026075,-0.012134 0.012292,-0.025291 0.00777,-0.00267 0.018789,0.00596 0.024583,0 0.00579,-0.00596 -0.00455,-0.018277 0,-0.025292 0.016566,-0.025563 0.095562,-0.047728 0.1229183,-0.075873 0.030129,-0.030995 0.011953,-0.050232 0.036876,-0.075873 0.00614,-0.00632 0.018438,-0.00632 0.024583,-0.012645 0.0029,-0.00298 -0.00289,-0.00966 0,-0.012645 0.0041,-0.00422 0.032778,-0.00843 0.036876,-0.012645 0.0029,-0.00298 -0.00341,-0.010307 0,-0.012645 0.044667,-0.030635 0.1844223,-0.012692 0.2089611,-0.037937 0.02093,-0.021532 -0.028585,-0.046318 -0.036876,-0.050582 -0.02159,-0.011105 -0.2502661,-0.114834 -0.2581286,-0.1391004 -0.00259,-0.008 0.00366,-0.017751 0,-0.025292 -0.00183,-0.00378 -0.00939,0.00298 -0.012292,0 -0.00289,-0.00298 0.00183,-0.00888 0,-0.012645 C 1.9059826,2.183598 1.8972376,2.171122 1.8880096,2.159255 1.8771506,2.14529 1.8589086,2.137314 1.8511336,2.121318 c -0.00183,-0.00378 0.0029,-0.00966 0,-0.012645 -0.00515,-0.0053 -0.029426,-0.00882 -0.036875,-0.012645 -0.015548,-0.008 -0.022969,-0.027207 -0.036876,-0.037937 -0.031015,-0.023931 -0.076572,-0.025913 -0.098335,-0.063228 -0.00667,-0.01143 -0.00511,-0.026846 -0.012292,-0.037937 -0.00227,-0.00351 -0.00819,0 -0.012292,0 -0.00409,-0.00421 -0.0097,-0.00731 -0.012292,-0.012645 C 1.6328416,1.925092 1.6308526,1.901523 1.6175876,1.881054 1.5997116,1.853468 1.5536686,1.835527 1.5438366,1.805181 c -0.00259,-0.008 0.00259,-0.017294 0,-0.025291 C 1.5433589,1.77841 1.4875416,1.698455 1.4823776,1.691372 1.4791576,1.686942 1.4249436,1.61964 1.4209186,1.615499 1.3980186,1.59194 1.3508026,1.572397 1.3348756,1.539626 1.2789196,1.4244943 1.3629996,1.555913 1.2979996,1.489044 1.2915296,1.482384 1.2921796,1.470418 1.2857076,1.463753 1.2792376,1.457093 1.2676026,1.457763 1.2611246,1.451108 1.2552546,1.445068 1.2429416,1.409305 1.2365416,1.400526 1.1702296,1.309567 1.2501906,1.427213 1.1873736,1.362589 1.1575196,1.331876 1.1910236,1.34402 1.1627906,1.324652 1.1551706,1.319422 1.1446856,1.318662 1.1382076,1.312007 1.1144574,1.287574 1.1004984,1.247921 1.0767485,1.223489 c -0.0029,-0.00298 -0.00863,0.00188 -0.012292,0 -0.051156,-0.026314 0.01314,8.743e-4 -0.012292,-0.025291 -0.025432,-0.026164 9.945e-4,0.039982 -0.024584,-0.012645 -0.00183,-0.00377 0.0029,-0.00966 0,-0.012645 -0.0029,-0.00298 -0.00863,0.00188 -0.012292,0 -0.010365,-0.00534 -0.014218,-0.019959 -0.0245838,-0.025291 -0.00733,-0.00378 -0.0187893,0.00596 -0.0245838,0 -0.002896,-0.00297 0,-0.00843 0,-0.012645 0,-0.039942 0.0183801,-0.01682 0.0491673,-0.037936 0.00762,-0.00523 0.0041,-0.021076 0.012292,-0.025291 0.018755,-0.00965 0.1130412,-0.023386 0.1229185,-0.025291 0.2155432,-0.041577 0.082499,-0.018774 0.1597938,-0.050582 0.035425,-0.0145779 0.077813,-0.008412 0.1106266,-0.0252911 0.017926,-0.009221 0.019664,-0.0202295 0.024583,-0.0252911 0.012292,-0.0126453 0.049168,0 0.061459,-0.0126453 0.00897,-0.00923 0.025828,-0.0689105 0.036876,-0.0632274 0.018826,0.009684 0.00961,0.0225347 0.024583,0.0379364 0.0066,0.00679 0.094854,0.0768248 0.1106265,0.10116389 0.015246,0.023527 0.019894,0.053639 0.036876,0.075873 0.047859,0.062665 0.1006457,0.1061086 0.1597938,0.151746 0.037651,0.029051 -0.020154,-0.00809 0.024583,0.037936 0.017933,0.018449 0.1123921,0.068676 0.1229185,0.1011639 0.00518,0.015995 -0.00398,0.034224 0,0.050582 0.016687,0.068666 0.071311,0.1245724 0.1229183,0.1643914 0.00733,0.00565 0.018106,0.00598 0.024583,0.012645 0.012383,0.012739 0.016732,0.038466 0.024584,0.050582 0.011364,0.017536 0.022389,0.035679 0.036876,0.050582 0.00647,0.00666 0.019502,0.0048 0.024583,0.012645 0.01216,0.018765 -2.993e-4,0.024983 0.012292,0.037937 0.00647,0.00666 0.019502,0.0048 0.024583,0.012645 0.00455,0.00701 -0.00367,0.017751 0,0.025291 0.012292,0.025292 0.024584,0.018968 0.036876,0.037937 0.019982,0.030834 0.060173,0.073227 0.073751,0.1011639 0.00183,0.00378 -0.0029,0.00966 0,0.012645 0.0029,0.00297 0.00863,-0.00188 0.012292,0 0.011879,0.00611 0.043227,0.038361 0.049168,0.050582 0.00183,0.00378 -0.0029,0.00967 0,0.012645 0.00579,0.00596 0.018789,-0.00596 0.024583,0 0.0029,0.00298 -0.0029,0.00967 0,0.012645 0.00244,0.0025 0.045802,0.00207 0.049167,0 0.017567,-0.010844 0.032778,-0.025291 0.049168,-0.037937 z"/></svg>