<svg xmlns="http://www.w3.org/2000/svg" xmlns:svg="http://www.w3.org/2000/svg" style="display:block;shape-rendering:auto" id="svg12" width="10" height="10" preserveAspectRatio="xMidYMid" version="1.1" viewBox="0 0 5 5"><ellipse style="display:block;shape-rendering:auto;fill:#928e85;fill-opacity:.348548;stroke:none;stroke-width:.6375;stroke-dasharray:none" id="path2" cx="2.485" cy="2.5" rx="2.483" ry="2.497"/><g id="g1" transform="matrix(0.08486573,0,0,0.08243763,-1.689977,-1.6176723)"><rect id="rect1" width="6" height="12" x="47" y="24" fill="#fe718d" rx="3" ry="6"><animate attributeName="opacity" begin="-0.9166666666666666s" dur="1s" keyTimes="0;1" repeatCount="indefinite" values="1;0"/></rect></g><g id="g2" transform="matrix(0.07349589,0.04121881,-0.04243287,0.07139307,1.0001591,-3.1263857)"><rect id="rect2" width="6" height="12" x="47" y="24" fill="#fe718d" rx="3" ry="6"><animate attributeName="opacity" begin="-0.8333333333333334s" dur="1s" keyTimes="0;1" repeatCount="indefinite" values="1;0"/></rect></g><g id="g3" transform="matrix(0.04243287,0.07139307,-0.07349589,0.04121881,4.1064607,-3.1263857)"><rect id="rect3" width="6" height="12" x="47" y="24" fill="#fe718d" rx="3" ry="6"><animate attributeName="opacity" begin="-0.75s" dur="1s" keyTimes="0;1" repeatCount="indefinite" values="1;0"/></rect></g><g id="g4" transform="matrix(0,0.08243763,-0.08486573,0,6.7965963,-1.6176723)"><rect id="rect4" width="6" height="12" x="47" y="24" fill="#fe718d" rx="3" ry="6"><animate attributeName="opacity" begin="-0.6666666666666666s" dur="1s" keyTimes="0;1" repeatCount="indefinite" values="1;0"/></rect></g><g id="g5" transform="matrix(-0.04243287,0.07139307,-0.07349589,-0.04121881,8.3497475,0.99549531)"><rect id="rect5" width="6" height="12" x="47" y="24" fill="#fe718d" rx="3" ry="6"><animate attributeName="opacity" begin="-0.5833333333333334s" dur="1s" keyTimes="0;1" repeatCount="indefinite" values="1;0"/></rect></g><g id="g6" transform="matrix(-0.07349589,0.04121881,-0.04243287,-0.07139307,8.3497475,4.0129221)"><rect id="rect6" width="6" height="12" x="47" y="24" fill="#fe718d" rx="3" ry="6"><animate attributeName="opacity" begin="-0.5s" dur="1s" keyTimes="0;1" repeatCount="indefinite" values="1;0"/></rect></g><g id="g7" transform="matrix(-0.08486573,0,0,-0.08243763,6.7965963,6.62609)"><rect id="rect7" width="6" height="12" x="47" y="24" fill="#fe718d" rx="3" ry="6"><animate attributeName="opacity" begin="-0.4166666666666667s" dur="1s" keyTimes="0;1" repeatCount="indefinite" values="1;0"/></rect></g><g id="g8" transform="matrix(-0.07349589,-0.04121881,0.04243287,-0.07139307,4.1064607,8.1348033)"><rect id="rect8" width="6" height="12" x="47" y="24" fill="#fe718d" rx="3" ry="6"><animate attributeName="opacity" begin="-0.3333333333333333s" dur="1s" keyTimes="0;1" repeatCount="indefinite" values="1;0"/></rect></g><g id="g9" transform="matrix(-0.04243287,-0.07139307,0.07349589,-0.04121881,1.0001591,8.1348033)"><rect id="rect9" width="6" height="12" x="47" y="24" fill="#fe718d" rx="3" ry="6"><animate attributeName="opacity" begin="-0.25s" dur="1s" keyTimes="0;1" repeatCount="indefinite" values="1;0"/></rect></g><g id="g10" transform="matrix(0,-0.08243763,0.08486573,0,-1.689977,6.62609)"><rect id="rect10" width="6" height="12" x="47" y="24" fill="#fe718d" rx="3" ry="6"><animate attributeName="opacity" begin="-0.16666666666666666s" dur="1s" keyTimes="0;1" repeatCount="indefinite" values="1;0"/></rect></g><g id="g11" transform="matrix(0.04243287,-0.07139307,0.07349589,0.04121881,-3.2431278,4.0129221)"><rect id="rect11" width="6" height="12" x="47" y="24" fill="#fe718d" rx="3" ry="6"><animate attributeName="opacity" begin="-0.08333333333333333s" dur="1s" keyTimes="0;1" repeatCount="indefinite" values="1;0"/></rect></g><g id="g12" transform="matrix(0.07349589,-0.04121881,0.04243287,0.07139307,-3.2431278,0.99549531)"><rect id="rect12" width="6" height="12" x="47" y="24" fill="#fe718d" rx="3" ry="6"><animate attributeName="opacity" begin="0s" dur="1s" keyTimes="0;1" repeatCount="indefinite" values="1;0"/></rect></g></svg>