<?xml version="1.0" encoding="UTF-8"?>
<!--
  ~ Copyright (c) 2024, MLC 'Strawmelonjuice' Bloeiman
  ~
  ~ Licensed under the BSD 3-Clause License. See the LICENSE file for more info.
  -->
<svg width="120" height="120" version="1.1" viewBox="0 0 120 120" xml:space="preserve" xmlns="http://www.w3.org/2000/svg"><g transform="matrix(3.0862 0 0 3.0862 24.842 20.186)" display="none" fill="none" stroke="#1c274c" stroke-width="1.5"><path d="m15.287 3.1518-0.9268 0.92688-8.5213 8.5212h-1e-5c-0.57715 0.5772-0.86573 0.8657-1.1139 1.1839-0.29277 0.3754-0.54376 0.7815-0.74856 1.2112-0.17361 0.3643-0.30266 0.7515-0.56078 1.5258l-1.3611 4.0834c-0.12702 0.381-0.02785 0.8011 0.25618 1.0852 0.28403 0.284 0.70415 0.3832 1.0852 0.2562l0.80208-0.2674 3.2813-1.0938h1e-5c0.77434-0.2581 1.1615-0.3871 1.5258-0.5607 0.42971-0.2048 0.83584-0.4558 1.2112-0.7486 0.3182-0.2482 0.6067-0.5368 1.1839-1.1139l8.5212-8.5213 0.9269-0.92687c1.5357-1.5357 1.5357-4.0256 0-5.5613-1.5357-1.5357-4.0256-1.5357-5.5613 0z"/><path d="m14.36 4.0781s0.1159 1.9696 1.8538 3.7075 3.7075 1.8538 3.7075 1.8538m-15.723 12.038-1.8761-1.8762" opacity=".5"/></g><g stroke-linecap="round" stroke-linejoin="round"><ellipse cx="60.481" cy="59.218" rx="53.378" ry="53.18" fill-opacity=".098814" opacity=".854" stroke="currentColor" stroke-width="2.8898"/><g stroke="currentColor"><path transform="matrix(.18738 .032737 -.032737 .18738 32.779 64.063)" d="m23.999 84.377 8.5638-61.703 49.155 38.268z" stroke-width="2.7789"/><path transform="matrix(.43357 .44112 -.79833 .78466 94.362 -13.574)" d="m24.951 75.234c-2.5778-3.0222-0.16522-33.42 2.857-35.998 3.0222-2.5778 33.42-0.16522 35.998 2.857 2.5778 3.0222 0.16522 33.42-2.857 35.998s-33.42 0.16522-35.998-2.857z" stroke-width="2.7789"/><path d="m44.869 57.785-6.2376 12.805" stroke-width="2.2881"/><path d="m44.009 77.824 13.937-2.9366" stroke-width="2.2881"/></g></g><ellipse transform="rotate(-33.998)" cx="46.958" cy="77.102" rx="5.2378" ry="10.761" opacity=".85" stroke="currentColor" stroke-linecap="round" stroke-linejoin="round" stroke-width="2.7789"/></svg>
