<?xml version="1.0" encoding="UTF-8"?>
<!--
  ~ Copyright (c) 2024, MLC 'Strawmelonjuice' Bloeiman
  ~
  ~ Licensed under the BSD 3-Clause License. See the LICENSE file for more info.
  -->
<svg width="120" height="120" version="1.1" viewBox="0 0 120 120" xmlns="http://www.w3.org/2000/svg">
 <g transform="matrix(-.70451 0 0 .69982 104.54 6.742)" fill-opacity=".9885" stroke="currentColor" stroke-linecap="square">
  <rect transform="matrix(-.61519 -.78838 .72963 -.68384 0 0)" x="-140.46" y="5.9193" width="2.0121" height="14.936" ry=".059533" stroke-width="4.5232" style="paint-order:fill markers stroke"/>
  <rect x="21.656" y="25.317" width="3.2053" height="67.868" ry=".27051" stroke-width="4.514" style="paint-order:fill markers stroke"/>
  <rect transform="matrix(-.61519 .78838 .72963 .68384 0 0)" x="32.372" y="69.376" width="2.0121" height="14.936" ry=".059533" stroke-width="4.5232" style="paint-order:fill markers stroke"/>
  <rect transform="rotate(90)" x="89.925" y="-88.832" width="3.2437" height="67.064" ry=".2673" stroke-width="4.514" style="paint-order:fill markers stroke"/>
  <rect transform="matrix(-.64475 -.76439 .75555 -.6551 0 0)" x="-150.67" y="-2.4582" width="3.5364" height="26.57" ry=".1059" stroke-width="4.5142" style="paint-order:fill markers stroke"/>
  <rect transform="matrix(-.61519 .78838 .72963 .68384 0 0)" x="-6.9496" y="119.46" width="2.0121" height="14.936" ry=".059533" stroke-width="4.5227" style="paint-order:fill markers stroke"/>
  <rect transform="matrix(-.64475 .76439 .75555 .6551 0 0)" x="-12.385" y="115.05" width="3.5364" height="26.57" ry=".1059" stroke-width="4.5142" style="paint-order:fill markers stroke"/>
 </g>
</svg>
