<?xml version="1.0" encoding="UTF-8"?>
<!--
  ~ Copyright (c) 2024, MLC 'Strawmelonjuice' Bloeiman
  ~
  ~ Licensed under the BSD 3-Clause License. See the LICENSE file for more info.
  -->
<svg width="120" height="120" version="1.1" viewBox="0 0 120 120" xmlns="http://www.w3.org/2000/svg">
 <g transform="matrix(.66012 0 0 .80825 20.221 10.123)" fill="currentColor" stroke="currentColor" stroke-width="0">
  <rect x="42.838" y="52.905" width="35.279" height="54.95" ry="7.0208" stroke-linecap="square" stroke-linejoin="bevel" style="paint-order:markers fill stroke"/>
  <g stroke-miterlimit="25.4">
   <rect transform="matrix(-.79708 -.60388 -.60082 .79938 0 0)" x="-123.04" y="-24.688" width="59.5" height="6.6488" rx=".6593" ry="1.9825" style="paint-order:markers fill stroke"/>
   <rect transform="matrix(-.79527 -.60625 -.59845 .80116 0 0)" x="-119.49" y="-17.281" width="51.33" height="5.7404" rx=".56877" ry="1.7116" style="paint-order:markers fill stroke"/>
   <rect transform="matrix(-.79539 -.6061 -.5986 .80105 0 0)" x="-116.87" y="-10.047" width="42.871" height="4.7942" rx=".47504" ry="1.4295" style="paint-order:markers fill stroke"/>
   <rect transform="matrix(-.79418 -.60768 -.59701 .80224 0 0)" x="-127.08" y="-33.89" width="67.224" height="7.5215" rx=".74488" ry="2.2427" style="paint-order:markers fill stroke"/>
   <rect transform="matrix(.79708 -.60388 .60082 .79938 0 0)" x="-25.766" y="49.102" width="59.5" height="6.6488" rx=".6593" ry="1.9825" style="paint-order:markers fill stroke"/>
   <rect transform="matrix(.79527 -.60625 .59845 .80116 0 0)" x="-21.988" y="56.801" width="51.33" height="5.7404" rx=".56877" ry="1.7116" style="paint-order:markers fill stroke"/>
   <rect transform="matrix(.79539 -.6061 .5986 .80105 0 0)" x="-19.39" y="64.017" width="42.871" height="4.7942" rx=".47504" ry="1.4295" style="paint-order:markers fill stroke"/>
   <rect transform="matrix(.79418 -.60768 .59701 .80224 0 0)" x="-29.442" y="40.37" width="67.224" height="7.5215" rx=".74488" ry="2.2427" style="paint-order:markers fill stroke"/>
  </g>
 </g>
</svg>
